<svg width="14" height="15" viewBox="0 0 14 15" fill="none" xmlns="http://www.w3.org/2000/svg">
<path fill-rule="evenodd" clip-rule="evenodd" d="M6.82567 0.704468C10.4057 0.704468 13.3177 3.61647 13.3177 7.19647C13.3177 8.8855 12.6695 10.426 11.6088 11.5821L13.6959 13.6649C13.8913 13.8603 13.8919 14.1763 13.6966 14.3716C13.5993 14.4703 13.4706 14.5189 13.3426 14.5189C13.2153 14.5189 13.0873 14.4703 12.9893 14.3729L10.8769 12.2665C9.76572 13.1564 8.35679 13.6891 6.82567 13.6891C3.24567 13.6891 0.333008 10.7765 0.333008 7.19647C0.333008 3.61647 3.24567 0.704468 6.82567 0.704468ZM6.82567 1.70447C3.79701 1.70447 1.33301 4.1678 1.33301 7.19647C1.33301 10.2251 3.79701 12.6891 6.82567 12.6891C9.85367 12.6891 12.3177 10.2251 12.3177 7.19647C12.3177 4.1678 9.85367 1.70447 6.82567 1.70447Z" fill="#112030"/>
</svg>
